<?xml version="1.0" encoding="UTF-8" standalone="no"?>
<!DOCTYPE svg PUBLIC "-//W3C//DTD SVG 1.1//EN" "http://www.w3.org/Graphics/SVG/1.1/DTD/svg11.dtd">
<svg width="100%" height="100%" viewBox="0 0 520 600" version="1.1" xmlns="http://www.w3.org/2000/svg" xmlns:xlink="http://www.w3.org/1999/xlink" xml:space="preserve" xmlns:serif="http://www.serif.com/" style="fill-rule:evenodd;clip-rule:evenodd;stroke-linejoin:round;stroke-miterlimit:2;">
    <g transform="matrix(1,0,0,1,-1054.22,-874.546)">
        <g transform="matrix(1,0,0,1,881.016,824.546)">
            <g>
                <g>
                    <g>
                        <path d="M173.205,300L173.205,200L433.013,50L519.615,100L173.205,300Z" style="fill:rgb(255,66,57);"/>
                        <path d="M519.615,100L606.218,150L173.205,400L173.205,300L519.615,100Z" style="fill:rgb(255,107,0);"/>
                        <path d="M606.218,150L692.82,200L173.205,500L173.205,400L606.218,150Z" style="fill:rgb(255,200,67);"/>
                        <path d="M692.82,200L692.82,300L259.808,550L173.205,500L692.82,200Z" style="fill:rgb(9,206,124);"/>
                        <path d="M692.82,300L692.82,400L346.41,600L259.808,550L692.82,300Z" style="fill:rgb(2,179,227);"/>
                        <path d="M692.82,400L692.82,500L433.013,650L346.41,600L692.82,400Z" style="fill:rgb(218,58,179);"/>
                    </g>
                    <g transform="matrix(1.20111,0,0,1,-84.7969,1.13687e-13)">
                        <g>
                            <clipPath id="_clip1">
                                <path d="M173.205,500L173.205,200L433.013,50L692.82,200L692.82,500L433.013,650L173.205,500Z"/>
                            </clipPath>
                            <g clip-path="url(#_clip1)">
                                <g transform="matrix(0.839437,0,0,0.666667,-1191.24,-1210.67)">
                                    <rect x="1568" y="2266" width="710" height="150" style="fill:white;fill-opacity:0.9;"/>
                                </g>
                            </g>
                        </g>
                    </g>
                    <g transform="matrix(1.4067,0,0,0.810698,188.02,169.878)">
                        <g transform="matrix(1,0,0,1,0,0.0501111)">
                            <g id="w" transform="matrix(0.577591,0,0,1.00222,-2.51685,-3.42582)">
                                <g transform="matrix(1,0,0,1,-1186.09,-1064.17)">
                                    <path d="M1599.95,1327.24C1595.52,1331.43 1589.53,1334.01 1582.94,1334.01C1569.29,1334.01 1558.2,1322.93 1558.2,1309.29L1558.2,1277.71L1573.67,1277.71L1573.67,1309.3C1573.67,1314.41 1577.82,1318.56 1582.94,1318.56C1588.06,1318.56 1592.21,1314.41 1592.21,1309.3L1592.21,1277.71L1592.22,1277.71L1592.22,1309.29C1592.22,1316.35 1595.19,1322.73 1599.95,1327.24Z" style="fill:rgb(2,179,227);"/>
                                </g>
                                <g transform="matrix(1,0,0,1,-1186.09,-1064.17)">
                                    <path d="M1592.22,1277.71L1607.69,1277.71L1607.69,1309.3C1607.68,1316.36 1604.71,1322.73 1599.95,1327.24C1595.19,1322.73 1592.22,1316.35 1592.22,1309.29L1592.22,1277.71Z" style="fill:rgb(1,41,159);"/>
                                </g>
                                <g transform="matrix(1,0,0,1,-1186.09,-1064.17)">
                                    <path d="M1607.69,1309.3C1607.69,1314.41 1611.84,1318.56 1616.96,1318.56C1622.08,1318.56 1626.23,1314.41 1626.23,1309.3L1626.23,1277.71L1641.7,1277.71L1641.7,1309.29C1641.7,1322.93 1630.62,1334.01 1616.96,1334.01C1610.38,1334.01 1604.39,1331.43 1599.95,1327.24C1604.71,1322.73 1607.68,1316.36 1607.69,1309.3Z" style="fill:rgb(218,58,179);"/>
                                </g>
                            </g>
                            <g id="o" transform="matrix(0.577591,0,0,1.00222,11.6487,-1.89915)">
                                <path d="M310.424,211.979C299.032,211.979 288.762,218.841 284.402,229.366C280.042,239.892 282.451,252.007 290.508,260.062C298.563,268.117 310.678,270.527 321.203,266.168C331.729,261.808 338.591,251.537 338.591,240.144C338.572,224.597 325.973,211.998 310.424,211.979ZM310.424,252.83C305.293,252.83 300.667,249.739 298.703,244.999C296.739,240.258 297.824,234.801 301.453,231.172C305.08,227.544 310.538,226.458 315.279,228.422C320.019,230.385 323.111,235.011 323.111,240.143C323.104,247.147 317.429,252.822 310.424,252.831L310.424,252.83Z" style="fill:rgb(255,66,57);fill-rule:nonzero;"/>
                            </g>
                            <g id="b" transform="matrix(0.577591,0,0,1.00222,-2.06662,-3.83399)">
                                <g>
                                    <g transform="matrix(1,0,0,1,-1207.26,-1006.52)">
                                        <path d="M1464.74,1223.44C1458.84,1226.42 1454.04,1231.45 1451.41,1237.81C1449.96,1241.3 1449.26,1244.96 1449.26,1248.59L1449.26,1187.22L1464.74,1187.22L1464.74,1223.44Z" style="fill:rgb(9,206,124);"/>
                                    </g>
                                    <g transform="matrix(1,0,0,1,-1207.26,-1006.52)">
                                        <path d="M1464.74,1273.74L1464.74,1276.76L1449.26,1276.76L1449.26,1248.59C1449.26,1255.92 1452.12,1263.12 1457.51,1268.51C1459.67,1270.66 1462.12,1272.42 1464.74,1273.74Z" style="fill:rgb(9,206,124);"/>
                                    </g>
                                </g>
                                <g transform="matrix(1,0,0,1,-1207.26,-1006.52)">
                                    <path d="M1449.26,1248.59C1449.26,1244.96 1449.96,1241.3 1451.41,1237.81C1454.04,1231.45 1458.84,1226.42 1464.74,1223.44L1464.74,1273.74C1462.12,1272.42 1459.67,1270.66 1457.51,1268.51C1452.12,1263.12 1449.26,1255.92 1449.26,1248.59Z" style="fill:rgb(4,86,0);"/>
                                </g>
                                <g transform="matrix(1,0,0,1,-1207.26,-1006.52)">
                                    <path d="M1464.74,1223.44C1468.6,1221.5 1472.93,1220.43 1477.43,1220.43C1492.98,1220.44 1505.58,1233.04 1505.6,1248.59C1505.6,1259.98 1498.73,1270.26 1488.21,1274.62C1480.5,1277.81 1471.94,1277.37 1464.74,1273.74L1464.74,1248.81C1464.77,1250.38 1465.09,1251.95 1465.71,1253.45C1467.67,1258.19 1472.3,1261.28 1477.43,1261.28C1484.43,1261.27 1490.11,1255.59 1490.12,1248.59C1490.12,1243.46 1487.03,1238.83 1482.29,1236.87C1477.54,1234.9 1472.09,1235.99 1468.46,1239.62C1466.09,1241.99 1464.8,1245.15 1464.74,1248.37L1464.74,1223.44Z" style="fill:rgb(255,107,0);"/>
                                </g>
                            </g>
                            <g id="n" transform="matrix(0.577591,0,0,1.00222,-2.3797,55.3778)">
                                <g transform="matrix(1,0,0,1,-1015.45,-1115.3)">
                                    <path d="M1213.62,1294.44L1213.62,1326.46L1213.61,1326.46L1213.61,1294.87C1213.61,1294.72 1213.62,1294.58 1213.62,1294.44Z"/>
                                </g>
                                <g transform="matrix(1,0,0,1,-1186.09,-1064.17)">
                                    <path d="M1368.78,1243.76L1368.78,1219.08L1384.26,1219.08L1384.26,1220.83C1375.19,1224.5 1368.78,1233.38 1368.78,1243.76Z" style="fill:rgb(255,200,67);"/>
                                </g>
                                <g transform="matrix(1,0,0,1,-1186.09,-1064.17)">
                                    <path d="M1384.25,1275.34L1368.78,1275.34L1368.78,1243.76C1368.78,1233.38 1375.19,1224.5 1384.26,1220.83L1384.26,1243.31C1384.25,1243.45 1384.25,1243.6 1384.25,1243.74L1384.25,1275.34Z" style="fill:rgb(217,45,47);"/>
                                </g>
                                <g transform="matrix(1,0,0,1,-1186.09,-1064.17)">
                                    <path d="M1384.26,1220.83C1387.12,1219.67 1390.25,1219.04 1393.52,1219.04C1407.18,1219.04 1418.27,1230.11 1418.27,1243.76L1418.27,1275.34L1402.79,1275.34L1402.79,1243.74C1402.79,1238.63 1398.64,1234.48 1393.52,1234.48C1388.54,1234.48 1384.49,1238.4 1384.26,1243.31L1384.26,1220.83Z" style="fill:rgb(218,58,179);"/>
                                </g>
                            </g>
                            <g id="i" transform="matrix(0.577591,0,0,1.59866,20.0605,-82.6077)">
                                <g transform="matrix(1,0,0,0.626914,-1186.09,-556.158)">
                                    <rect x="1304.31" y="1146.69" width="15.48" height="16.342" style="fill:rgb(255,200,67);"/>
                                </g>
                                <g transform="matrix(1,0,0,0.626914,-1186.09,-556.158)">
                                    <rect x="1304.31" y="1179.72" width="15.48" height="56.257" style="fill:rgb(255,66,57);"/>
                                </g>
                            </g>
                            <g id="a" transform="matrix(0.577591,0,0,1.59866,39.7108,-89.7186)">
                                <g transform="matrix(1,0,0,0.626914,-1186.09,-556.158)">
                                    <path d="M1244.51,1189.79L1244.51,1214.93C1244.51,1209.79 1241.42,1205.17 1236.68,1203.2C1231.94,1201.24 1226.48,1202.33 1222.85,1205.96C1219.22,1209.58 1218.14,1215.04 1220.1,1219.78C1222.06,1224.52 1226.69,1227.61 1231.82,1227.61C1238.83,1227.61 1244.5,1221.93 1244.51,1214.93L1244.51,1240.08C1243.89,1240.39 1243.25,1240.68 1242.6,1240.95C1232.08,1245.31 1219.96,1242.9 1211.9,1234.85C1203.85,1226.79 1201.44,1214.67 1205.8,1204.15C1210.16,1193.62 1220.43,1186.76 1231.82,1186.76C1236.39,1186.77 1240.7,1187.86 1244.51,1189.79Z" style="fill:rgb(2,179,227);"/>
                                </g>
                                <g transform="matrix(1,0,0,0.626914,-1186.09,-556.158)">
                                    <path d="M1244.51,1240.08L1244.51,1189.79C1253.68,1194.43 1259.98,1203.94 1259.99,1214.93C1259.99,1225.62 1253.95,1235.32 1244.51,1240.08Z" style="fill:rgb(4,86,0);"/>
                                </g>
                                <g>
                                    <g transform="matrix(1,0,0,0.626914,-1186.09,-556.158)">
                                        <path d="M1244.51,1189.79L1244.51,1186.84L1259.99,1186.84L1259.99,1214.93C1259.98,1203.94 1253.68,1194.43 1244.51,1189.79Z" style="fill:rgb(255,107,0);"/>
                                    </g>
                                    <g transform="matrix(1,0,0,0.626914,-1186.09,-556.158)">
                                        <path d="M1259.99,1214.93L1259.99,1243.1L1244.51,1243.1L1244.51,1240.08C1253.95,1235.32 1259.99,1225.62 1259.99,1214.93Z" style="fill:rgb(255,107,0);"/>
                                    </g>
                                </g>
                            </g>
                            <g id="r" transform="matrix(0.577591,0,0,1.59866,7.60497,-183.788)">
                                <g transform="matrix(1,0,0,0.626914,-1186.09,-556.158)">
                                    <path d="M1238.89,1281.41C1229.98,1283.83 1223.41,1291.99 1223.41,1301.66L1223.41,1280.68L1238.89,1280.68L1238.89,1281.41Z" style="fill:rgb(2,179,227);"/>
                                </g>
                                <g transform="matrix(1,0,0,0.626914,-1186.09,-556.158)">
                                    <path d="M1244.38,1280.68L1244.4,1280.68C1246.31,1280.68 1248.17,1280.93 1249.94,1281.42C1253.42,1282.37 1256.62,1284.22 1259.2,1286.82L1248.26,1297.77C1246.69,1296.19 1244.33,1295.73 1242.28,1296.58C1240.23,1297.42 1238.89,1299.42 1238.89,1301.64L1238.89,1281.41C1240.64,1280.93 1242.48,1280.68 1244.38,1280.68Z" style="fill:rgb(218,58,179);"/>
                                </g>
                                <g transform="matrix(1,0,0,0.626914,-1186.09,-556.158)">
                                    <path d="M1223.41,1336.93L1223.41,1301.66C1223.41,1291.99 1229.98,1283.83 1238.89,1281.41L1238.89,1336.93L1223.41,1336.93Z" style="fill:rgb(1,41,159);"/>
                                </g>
                            </g>
                        </g>
                        <g transform="matrix(0.127429,0,0,0.221113,230.466,143.466)">
                            <path d="M550,377C550,377 571.822,383.585 584.5,390C588.899,392.226 596.51,396.668 602,402.5C607.378,408.212 610,414 610,414L696,559L557,559.062L492,437C492,437 478.69,414.131 470.5,407.5C463.668,401.969 460.755,400 454,400L420.974,400L421,558.974L298,559.026L298,152.938L545,152.938C545,152.938 657.5,154.967 657.5,262C657.5,369.033 550,377 550,377ZM496.5,241.024L422.037,240.976L422,310.026L496.5,310.002C496.5,310.002 531,309.895 531,274.877C531,239.155 496.5,241.024 496.5,241.024Z" style="fill:rgb(255,107,0);"/>
                        </g>
                    </g>
                </g>
            </g>
        </g>
    </g>
</svg>
